<?xml version="1.0" encoding="utf-8" ?>
<svg baseProfile="full" height="100%" version="1.1" width="100%" xmlns="http://www.w3.org/2000/svg" xmlns:ev="http://www.w3.org/2001/xml-events" xmlns:xlink="http://www.w3.org/1999/xlink"><defs /><circle cx="294.0" cy="283.0" fill="white" r="30" stroke="black" /><text font-size="15" x="289.0" y="288.0">q0</text><circle cx="452.0" cy="120.0" fill="white" r="30" stroke="black" /><text font-size="15" x="447.0" y="125.0">q1</text><circle cx="679.0" cy="188.0" fill="white" r="30" stroke="black" /><text font-size="15" x="674.0" y="193.0">q2</text><circle cx="904.0" cy="116.0" fill="white" r="30" stroke="black" /><text font-size="15" x="899.0" y="121.0">q3</text><circle cx="455.0" cy="408.0" fill="white" r="30" stroke="black" /><text font-size="15" x="450.0" y="413.0">q4</text><circle cx="686.0" cy="347.0" fill="white" r="30" stroke="black" /><text font-size="15" x="681.0" y="352.0">q5</text><circle cx="942.0" cy="404.0" fill="white" r="30" stroke="black" /><text font-size="15" x="937.0" y="409.0">q6</text><line stroke="black" x1="294.0" x2="455.0" y1="283.0" y2="408.0" /><text font-size="12" x="369.5" y="340.5">1</text><line stroke="black" x1="942.0" x2="904.0" y1="404.0" y2="116.0" /><text font-size="12" x="918.0" y="255.0">0</text><line stroke="black" x1="942.0" x2="455.0" y1="404.0" y2="408.0" /><text font-size="12" x="693.5" y="401.0">1</text><line stroke="black" x1="904.0" x2="942.0" y1="116.0" y2="404.0" /><text font-size="12" x="918.0" y="255.0">1</text><line stroke="black" x1="686.0" x2="942.0" y1="347.0" y2="404.0" /><text font-size="12" x="809.0" y="370.5">1</text><line stroke="black" x1="294.0" x2="452.0" y1="283.0" y2="120.0" /><text font-size="12" x="368.0" y="196.5">0</text><line stroke="black" x1="452.0" x2="452.0" y1="120.0" y2="120.0" /><text font-size="12" x="447.0" y="115.0">0</text><line stroke="black" x1="679.0" x2="904.0" y1="188.0" y2="116.0" /><text font-size="12" x="786.5" y="147.0">0</text><line stroke="black" x1="679.0" x2="455.0" y1="188.0" y2="408.0" /><text font-size="12" x="562.0" y="293.0">1</text><line stroke="black" x1="455.0" x2="455.0" y1="408.0" y2="408.0" /><text font-size="12" x="450.0" y="403.0">1</text><line stroke="black" x1="686.0" x2="452.0" y1="347.0" y2="120.0" /><text font-size="12" x="564.0" y="228.5">0</text><line stroke="black" x1="904.0" x2="452.0" y1="116.0" y2="120.0" /><text font-size="12" x="673.0" y="113.0">0</text><line stroke="black" x1="452.0" x2="679.0" y1="120.0" y2="188.0" /><text font-size="12" x="560.5" y="149.0">1</text><line stroke="black" x1="455.0" x2="686.0" y1="408.0" y2="347.0" /><text font-size="12" x="565.5" y="372.5">0</text></svg>