<?xml version='1.0' encoding='utf-8'?>
<svg xmlns="http://www.w3.org/2000/svg" width="1920" height="1080"><defs><marker id="arrowhead" viewBox="0 0 10 10" refX="8" refY="5" markerWidth="6" markerHeight="6" orient="auto-start-reverse"><path d="M 0 0 L 10 5 L 0 10 z" /></marker></defs><path d="M297.0,234.0 L297.0,322.0" fill="none" stroke="black" stroke-width="2" marker-end="url(#arrowhead)" /><text x="317.0" y="278.0" text-anchor="start" dy=".3em">h</text><path d="M297.0,234.0 L297.0,322.0" fill="none" stroke="black" stroke-width="2" marker-end="url(#arrowhead)" /><text x="337.0" y="278.0" text-anchor="start" dy=".3em">f</text><path d="M297.0,234.0 L297.0,322.0" fill="none" stroke="black" stroke-width="2" marker-end="url(#arrowhead)" /><text x="357.0" y="278.0" text-anchor="start" dy=".3em">g</text><path d="M297.0,234.0 L297.0,322.0" fill="none" stroke="black" stroke-width="2" marker-end="url(#arrowhead)" /><text x="377.0" y="278.0" text-anchor="start" dy=".3em">c</text><path d="M297.0,234.0 L297.0,322.0" fill="none" stroke="black" stroke-width="2" marker-end="url(#arrowhead)" /><text x="397.0" y="278.0" text-anchor="start" dy=".3em">d</text><path d="M297.0,234.0 L297.0,322.0" fill="none" stroke="black" stroke-width="2" marker-end="url(#arrowhead)" /><text x="417.0" y="278.0" text-anchor="start" dy=".3em">e</text><path d="M297.0,234.0 L297.0,322.0" fill="none" stroke="black" stroke-width="2" marker-end="url(#arrowhead)" /><text x="437.0" y="278.0" text-anchor="start" dy=".3em">b</text><path d="M297.0,234.0 L297.0,322.0" fill="none" stroke="black" stroke-width="2" marker-end="url(#arrowhead)" /><text x="457.0" y="278.0" text-anchor="start" dy=".3em">a</text><circle cx="297" cy="214" r="20" fill="yellow" stroke="black" /><text x="297" y="214" text-anchor="middle" dy=".3em">0</text><circle cx="297" cy="342" r="20" fill="yellow" stroke="black" /><text x="297" y="342" text-anchor="middle" dy=".3em">1</text></svg>