<?xml version="1.0" encoding="utf-8" ?>
<svg baseProfile="full" height="300px" version="1.1" width="500px" xmlns="http://www.w3.org/2000/svg" xmlns:ev="http://www.w3.org/2001/xml-events" xmlns:xlink="http://www.w3.org/1999/xlink"><defs /><circle cx="84.0" cy="68.0" r="30" style="fill:yellow;stroke:black;stroke-width:2px;" /><text alignment-baseline="central" style="font-size:20px;" text-anchor="middle" x="84.0" y="68.0">q0</text><circle cx="219.0" cy="63.0" r="30" style="fill:yellow;stroke:black;stroke-width:2px;" /><text alignment-baseline="central" style="font-size:20px;" text-anchor="middle" x="219.0" y="63.0">q1</text><circle cx="419.0" cy="71.0" r="30" style="fill:yellow;stroke:black;stroke-width:2px;" /><text alignment-baseline="central" style="font-size:20px;" text-anchor="middle" x="419.0" y="71.0">q2</text><circle cx="276.0" cy="181.0" r="30" style="fill:yellow;stroke:black;stroke-width:2px;" /><text alignment-baseline="central" style="font-size:20px;" text-anchor="middle" x="276.0" y="181.0">q3</text><path d="M 276.0,181.0 Q 180.0,220.5 84.0,68.0" fill="none" stroke="black" stroke-width="2" /><text alignment-baseline="central" style="font-size:20px;" text-anchor="middle" x="180.0" y="220.5">d</text><path d="M 84.0,68.0 Q 151.5,133.0 219.0,63.0" fill="none" stroke="black" stroke-width="2" /><text alignment-baseline="central" style="font-size:20px;" text-anchor="middle" x="151.5" y="133.0">a</text><path d="M 219.0,63.0 Q 306.5,122.0 276.0,181.0" fill="none" stroke="black" stroke-width="2" /><text alignment-baseline="central" style="font-size:20px;" text-anchor="middle" x="306.5" y="122.0">f</text><path d="M 219.0,63.0 Q 319.0,167.0 419.0,71.0" fill="none" stroke="black" stroke-width="2" /><text alignment-baseline="central" style="font-size:20px;" text-anchor="middle" x="319.0" y="167.0">b</text><path d="M 419.0,71.0 Q 347.5,197.5 276.0,181.0" fill="none" stroke="black" stroke-width="2" /><text alignment-baseline="central" style="font-size:20px;" text-anchor="middle" x="347.5" y="197.5">c</text></svg>